<svg width="38" height="38" viewBox="0 0 38 38" fill="none" xmlns="http://www.w3.org/2000/svg">
<path d="M33.2502 7.91667C31.4927 7.3625 29.561 7.125 27.7085 7.125C24.621 7.125 21.296 7.75833 19.0002 9.5C16.7043 7.75833 13.3793 7.125 10.2918 7.125C7.20433 7.125 3.87933 7.75833 1.5835 9.5V32.6958C1.5835 33.0917 1.97933 33.4875 2.37516 33.4875C2.5335 33.4875 2.61266 33.4083 2.771 33.4083C4.9085 32.3792 7.996 31.6667 10.2918 31.6667C13.3793 31.6667 16.7043 32.3 19.0002 34.0417C21.1377 32.6958 25.0168 31.6667 27.7085 31.6667C30.321 31.6667 33.0127 32.1417 35.2293 33.3292C35.3877 33.4083 35.4668 33.4083 35.6252 33.4083C36.021 33.4083 36.4168 33.0125 36.4168 32.6167V9.5C35.4668 8.7875 34.4377 8.3125 33.2502 7.91667ZM33.2502 29.2917C31.5085 28.7375 29.6085 28.5 27.7085 28.5C25.0168 28.5 21.1377 29.5292 19.0002 30.875V12.6667C21.1377 11.3208 25.0168 10.2917 27.7085 10.2917C29.6085 10.2917 31.5085 10.5292 33.2502 11.0833V29.2917Z" fill="#000046"/>
<g clip-path="url(#clip0)">
<path d="M31.163 20.9289L29.7806 19.0857L28.3982 20.9289H29.2765C29.0756 22.0667 28.1531 22.9892 27.0158 23.1896V20.0073H27.9374V19.0857H27.0158V18.319C27.7268 18.1075 28.2664 17.4329 28.2664 16.6504C28.2664 15.7062 27.4987 14.9385 26.555 14.9385C25.6113 14.9385 24.8436 15.7062 24.8436 16.6504C24.8436 17.4329 25.3832 18.1075 26.0942 18.319V19.0857H25.1726V20.0073H26.0942V23.1896C24.9565 22.9892 24.034 22.0667 23.8335 20.9289H24.7118L23.3294 19.0857L21.947 20.9289H22.9023C23.1377 22.7192 24.7127 24.1546 26.555 24.1546C28.3973 24.1546 29.9723 22.7192 30.2078 20.9289H31.163ZM25.7652 16.6504C25.7652 16.215 26.1196 15.8601 26.555 15.8601C26.9905 15.8601 27.3448 16.215 27.3448 16.6504C27.3448 17.0886 26.9757 17.4729 26.555 17.4729C26.1343 17.4729 25.7652 17.0886 25.7652 16.6504Z" fill="#000046"/>
</g>
<path d="M5.87081 25.2193C5.87081 25.2193 1.25853 17.8798 10.7467 13.1538V25.2193H5.87086" fill="#FDFDFF"/>
<path d="M12.2158 25.2193V17.7411C12.2158 17.7411 13.7302 20.2124 16.8078 25.2193H12.2158" fill="#FDFDFF"/>
<defs>
<clipPath id="clip0">
<rect x="21.0254" y="14.0169" width="11.0592" height="11.0592" fill="white"/>
</clipPath>
</defs>
</svg>
