<?xml version="1.0" standalone="no"?>
<!DOCTYPE svg PUBLIC "-//W3C//DTD SVG 20010904//EN"
 "http://www.w3.org/TR/2001/REC-SVG-20010904/DTD/svg10.dtd">
<svg version="1.0" xmlns="http://www.w3.org/2000/svg"
 width="700.000000pt" height="700.000000pt" viewBox="0 0 700.000000 700.000000"
 preserveAspectRatio="xMidYMid meet">
<metadata>
Created by potrace 1.11, written by Peter Selinger 2001-2013
</metadata>
<g transform="translate(0.000000,700.000000) scale(0.100000,-0.100000)"
fill="#000000" stroke="none">
<path d="M1688 5684 c-2 -1 -45 -5 -97 -9 -469 -31 -932 -172 -1226 -373 l-70
-48 -3 -2147 c-2 -2371 -7 -2189 63 -2243 56 -42 108 -39 225 13 75 34 290
113 370 136 172 50 331 88 430 102 24 4 47 8 50 10 4 2 35 7 70 10 35 3 67 8
70 10 28 17 418 24 610 11 94 -6 346 -38 410 -51 14 -3 48 -10 75 -15 84 -17
287 -78 396 -121 92 -36 326 -151 339 -168 3 -3 26 -21 52 -39 l48 -33 57 34
c311 181 887 353 1323 393 168 16 473 8 670 -16 136 -17 191 -27 300 -52 47
-11 95 -22 106 -24 93 -18 304 -95 444 -161 87 -41 126 -55 159 -54 53 0 102
31 130 82 l21 37 -2 2143 -3 2142 -76 51 c-260 175 -640 304 -1034 351 -27 4
-60 8 -73 10 -155 25 -644 25 -842 0 -19 -2 -57 -7 -85 -10 -47 -6 -136 -20
-180 -29 -134 -29 -185 -41 -275 -67 -196 -56 -401 -149 -559 -252 l-83 -54
-82 55 c-96 65 -305 168 -429 211 -136 47 -331 97 -457 116 -19 3 -46 8 -60
10 -14 3 -41 7 -60 9 -19 2 -57 7 -85 10 -126 15 -185 18 -402 20 -128 2 -234
2 -235 0z m3670 -588 c68 -4 131 -9 141 -11 10 -2 42 -6 72 -9 30 -3 63 -8 74
-10 53 -10 121 -19 127 -18 4 1 18 -2 31 -7 13 -5 41 -12 62 -15 31 -5 166
-39 245 -63 13 -4 15 -197 15 -1679 0 -1250 -3 -1674 -11 -1674 -7 0 -40 8
-75 19 -110 32 -258 65 -344 76 -27 3 -77 10 -110 15 -227 34 -668 34 -865 0
-496 -85 -867 -205 -1173 -379 -21 -11 -40 -21 -42 -21 -3 0 -4 755 -3 1678
l3 1677 140 70 c77 39 167 81 200 94 33 12 78 30 100 39 21 9 42 17 45 18 3 0
50 14 105 31 111 35 202 62 231 67 11 2 39 9 64 16 25 7 52 13 60 15 8 1 65
12 125 23 61 12 133 24 160 27 28 3 59 8 70 10 11 2 63 7 115 11 52 3 96 7 97
8 4 3 230 -2 341 -8z"/>
<path d="M4808 4236 c-61 -16 -117 -54 -160 -108 -48 -60 -69 -119 -69 -198
-1 -116 71 -229 179 -284 l50 -25 -1 -60 c-1 -33 -6 -63 -10 -68 -5 -4 -40 -9
-78 -9 -38 -1 -72 -2 -76 -3 -6 -1 -8 -98 -4 -157 1 -6 32 -10 84 -10 l82 1 1
-293 0 -293 -30 6 c-105 21 -251 127 -315 230 -24 37 -71 157 -71 179 0 1 36
2 79 1 54 -1 78 2 74 9 -16 27 -233 315 -241 320 -5 3 -51 -51 -103 -120 -51
-70 -98 -131 -104 -138 -21 -23 -45 -65 -37 -69 4 -2 42 -3 84 -2 l77 0 7 -40
c17 -105 89 -245 176 -341 58 -64 192 -151 273 -176 178 -56 351 -45 508 33
109 54 199 133 274 241 38 53 90 178 99 234 3 22 8 42 9 45 2 3 40 5 84 4 45
-1 81 3 81 7 0 5 -55 81 -121 169 -99 131 -124 158 -134 147 -36 -38 -234
-311 -230 -318 2 -3 36 -6 75 -5 l72 2 -7 -35 c-21 -110 -131 -256 -242 -321
-61 -35 -154 -65 -162 -52 -5 7 -6 548 -2 571 1 3 31 5 69 4 103 -3 99 -6 98
89 l-2 82 -82 0 c-67 -1 -82 2 -83 15 -1 8 -2 39 -3 69 l-1 54 43 18 c63 27
143 113 166 178 19 54 25 141 13 194 -8 40 -53 113 -90 149 -72 70 -196 100
-299 74z m154 -179 c52 -36 71 -70 71 -127 0 -41 -5 -57 -30 -88 -56 -70 -144
-77 -206 -17 -78 76 -59 199 38 240 45 19 91 16 127 -8z"/>
</g>
</svg>
